<?xml version="1.0" encoding="UTF-8" standalone="no"?>
<!-- Created with Inkscape (http://www.inkscape.org/) -->

<svg
   xmlns:dc="http://purl.org/dc/elements/1.1/"
   xmlns:cc="http://creativecommons.org/ns#"
   xmlns:rdf="http://www.w3.org/1999/02/22-rdf-syntax-ns#"
   xmlns:svg="http://www.w3.org/2000/svg"
   xmlns="http://www.w3.org/2000/svg"
   xmlns:sodipodi="http://sodipodi.sourceforge.net/DTD/sodipodi-0.dtd"
   xmlns:inkscape="http://www.inkscape.org/namespaces/inkscape"
   width="200"
   height="200"
   id="svg2"
   version="1.1"
   inkscape:version="0.48.5 r10040"
   sodipodi:docname="logo.svg">
  <defs
     id="defs4" />
  <sodipodi:namedview
     id="base"
     pagecolor="#ffffff"
     bordercolor="#ff8900"
     borderopacity="1"
     inkscape:pageopacity="0.0"
     inkscape:pageshadow="2"
     inkscape:zoom="0.98994949"
     inkscape:cx="13.651439"
     inkscape:cy="18.866137"
     inkscape:document-units="px"
     inkscape:current-layer="layer1"
     showgrid="false"
     width="600px"
     inkscape:showpageshadow="true"
     showborder="true"
     borderlayer="false"
     inkscape:window-width="1920"
     inkscape:window-height="985"
     inkscape:window-x="0"
     inkscape:window-y="32"
     inkscape:window-maximized="1"
     fit-margin-top="0"
     fit-margin-left="0"
     fit-margin-right="0"
     fit-margin-bottom="0" />
  <metadata
     id="metadata7">
    <rdf:RDF>
      <cc:Work
         rdf:about="">
        <dc:format>image/svg+xml</dc:format>
        <dc:type
           rdf:resource="http://purl.org/dc/dcmitype/StillImage" />
        <dc:title></dc:title>
      </cc:Work>
    </rdf:RDF>
  </metadata>
  <g
     inkscape:label="Layer 1"
     inkscape:groupmode="layer"
     id="layer1"
     transform="translate(0,-852.3622)">
    <path
       style="fill:#000000;fill-opacity:1;stroke:none"
       d="m 100,852.3622 c -55.228474,0 -100,44.77153 -100,100 0,55.2285 44.771526,100 100,100 55.22847,0 100,-44.7715 100,-100 l -0.0104,-1.02083 c -0.15437,-15.10361 -3.649,-29.39363 -9.78124,-42.17708 l -5.00001,4.98958 c -2.836,2.836 -5.6018,4.13694 -8.30208,3.90625 -2.68674,-0.2171 -5.73681,-2.02844 -9.15626,-5.44792 l -17.75,-17.75 -6.04168,6.04167 -4.58333,-4.57292 12.01042,-12.01041 22.32292,22.32291 c 1.77757,1.7776 3.3296,2.77565 4.64583,2.97917 1.28908,0.20356 2.60455,-0.37537 3.94792,-1.71875 l 4.76041,-4.76042 c -9.49511,-16.76127 -23.68824,-30.49631 -40.78125,-39.4375 l 10.76042,10.76042 -5.91667,5.92708 -13.88541,-13.88541 c -1.64189,-1.64186 -3.04138,-2.57864 -4.20833,-2.82292 -0.58348,-0.12209 -1.15926,-0.0817 -1.72917,0.13542 -0.55634,0.20356 -1.09168,0.56046 -1.59375,1.0625 -1.11268,1.11271 -1.49548,2.44997 -1.15625,4.01041 0.35281,1.57406 1.37676,3.21011 3.07292,4.90625 l 13.04166,13.04167 -5.91667,5.92708 -31.67708,-31.66667 5.92708,-5.92708 12.29167,12.29167 c -0.82771,-1.69613 -1.08292,-3.38714 -0.77084,-5.08333 0.32568,-1.7097 1.21477,-3.29805 2.66667,-4.75001 0.43131,-0.43129 0.87624,-0.80406 1.32292,-1.13541 -9.03753,-2.68388 -18.60629,-4.13542 -28.51041,-4.13542 z m 11.69792,24.1875 5.44791,5.44792 c -0.81416,0.0543 -1.60882,0.18918 -2.39583,0.40625 -0.78702,0.19 -1.51219,0.43383 -2.17709,0.71875 -0.66489,0.28499 -1.32784,0.65326 -1.97916,1.11458 -0.66489,0.44783 -1.29152,0.96864 -1.875,1.55208 -1.01769,1.01774 -1.72833,2.05621 -2.13542,3.11459 -0.40707,1.0313 -0.56373,2.09883 -0.46874,3.19791 0.20354,2.29324 1.44226,4.56729 3.70832,6.83334 2.26608,2.26609 4.54328,3.49754 6.82292,3.6875 2.2525,0.18999 4.3481,-0.69184 6.30208,-2.64584 1.13981,-1.1398 2.02164,-2.4221 2.64584,-3.83333 0.27137,-0.59703 0.5152,-1.27861 0.71875,-2.05208 0.21709,-0.787 0.34469,-1.6325 0.38542,-2.54167 l 5.46875,5.46875 c -0.2307,0.85489 -0.5077,1.6527 -0.83334,2.38542 -0.31211,0.71919 -0.67312,1.43709 -1.09375,2.15625 -0.42066,0.71919 -0.89063,1.41119 -1.40625,2.0625 -0.50208,0.66491 -1.10691,1.34649 -1.8125,2.05208 -3.56873,3.56874 -7.39482,5.27427 -11.47916,5.125 -4.1115,-0.14925 -8.02886,-2.09135 -11.76042,-5.82292 -3.74512,-3.7451 -5.694474,-7.68425 -5.84375,-11.82291 -0.122113,-4.11147 1.554368,-7.90849 5.04167,-11.39583 1.24838,-1.24834 2.58564,-2.30135 4.01041,-3.15626 1.41121,-0.84125 2.98503,-1.52284 4.70834,-2.05208 z m -40.281253,20.20834 8.874997,8.87499 7.791672,-7.79166 4.583332,4.57291 -7.802084,7.80209 10.874995,10.86458 c 1.004121,1.00415 1.977227,1.48138 2.927084,1.42709 0.515629,-0.0271 1.036443,-0.19105 1.552087,-0.48959 0.51562,-0.32564 1.04055,-0.75929 1.58333,-1.30208 l 4.58333,-4.58333 4.57292,4.58333 -5,5.01041 c -3.43305,3.43305 -6.300551,5.1967 -8.593746,5.29167 -2.293215,0.12214 -4.916899,-1.3023 -7.875005,-4.26042 l -10.583327,-10.58333 -5.822918,5.82292 -4.583332,-4.58334 5.822911,-5.81249 -6.229162,-6.22917 3.322916,-8.61458 z m 56.864583,10.66666 22.33333,22.32292 c 1.77757,1.7776 3.31919,2.76523 4.63542,2.96875 1.28907,0.20355 2.60454,-0.36496 3.94792,-1.70834 l 4.76041,-4.76041 4.58333,4.58333 -6.42708,6.42708 c -2.83599,2.836 -5.61222,4.13694 -8.3125,3.90626 -2.68672,-0.2171 -5.73679,-2.02844 -9.15625,-5.44792 l -17.75,-17.75 -6.04167,6.04166 -4.58333,-4.57291 12.01042,-12.01042 z M 48,918.88303 c 0.203539,0 0.411053,0.10899 0.614583,0.3125 l 5.739583,5.73959 c 0.40709,0.40712 0.40709,0.81171 0,1.21875 l -4.739583,4.73958 c -0.407063,0.40711 -0.811654,0.40711 -1.21875,0 l -5.739583,-5.73958 c -0.407057,-0.40704 -0.407057,-0.81163 0,-1.21875 l 4.739583,-4.73959 c 0.20355,-0.20351 0.400626,-0.3125 0.604167,-0.3125 z m 9.677083,9.36459 13.531249,13.54166 c 1.777573,1.77761 3.329604,2.76523 4.645833,2.96875 1.289074,0.20356 2.604543,-0.36494 3.947915,-1.70833 l 4.760417,-4.77083 4.57292,4.58333 -6.427085,6.4375 c -2.835999,2.836 -5.601805,4.13694 -8.30208,3.90625 -2.686731,-0.21709 -5.747209,-2.03886 -9.16667,-5.45833 l -8.947916,-8.95833 -4.822916,4.82291 -4.583334,-4.57291 10.791667,-10.79167 z m 64.354167,6.63542 c 0.73274,4e-5 1.4797,0.0913 2.23958,0.28124 0.75988,0.19001 1.55454,0.51786 2.39584,0.97917 0.84129,0.43426 1.73353,1.0173 2.65625,1.75 0.90913,0.71921 1.8895,1.6083 2.94791,2.66667 0.25781,0.25785 0.59291,0.60748 1,1.04167 0.42064,0.42068 0.87608,0.88023 1.36459,1.39583 0.50205,0.5021 1.01244,1.03744 1.54166,1.59375 0.5292,0.52923 1.02821,1.03237 1.48959,1.52083 0.4749,0.47496 0.88677,0.90134 1.23958,1.28125 0.36635,0.3664 0.62882,0.63928 0.79166,0.80209 0.28494,0.28498 0.5692,0.56924 0.85417,0.85416 0.29851,0.27141 0.54645,0.49029 0.75,0.66666 0.29851,0.24428 0.59003,0.49222 0.875,0.75001 0.28494,0.2307 0.53603,0.42368 0.73959,0.57291 0.31207,0.2307 0.62538,0.45274 0.93749,0.65625 0.29851,0.19 0.53192,0.33213 0.70834,0.42709 0.27136,0.13571 0.56288,0.26331 0.875,0.38541 0.32564,0.10858 0.61716,0.17807 0.875,0.21875 l -5.90625,5.90625 c -0.32568,-0.0814 -0.64311,-0.17267 -0.96875,-0.28125 -0.31211,-0.1221 -0.57773,-0.23832 -0.78125,-0.33333 -0.17642,-0.095 -0.40983,-0.23709 -0.70834,-0.42708 -0.3121,-0.20352 -0.61815,-0.4224 -0.91666,-0.66667 0.24423,1.73689 0.0513,3.47148 -0.57292,5.20833 -0.29854,0.84132 -0.68134,1.63912 -1.15625,2.38542 -0.46137,0.73275 -1.08073,1.48698 -1.85417,2.26042 -1.23481,1.23481 -2.52123,2.17886 -3.86458,2.84375 -1.32979,0.65133 -2.71064,1.00096 -4.13542,1.04167 -2.82241,0.0814 -5.46061,-1.10646 -7.91666,-3.56251 -1.30265,-1.30264 -2.23943,-2.65443 -2.82292,-4.05208 -0.5699,-1.4112 -0.73382,-2.89058 -0.48958,-4.4375 0.46136,-2.98523 2.49474,-6.28638 6.10417,-9.89583 l 4.13541,-4.125 -1,-1 c -0.50206,-0.50203 -1.03741,-0.8444 -1.59375,-1.02083 -0.54277,-0.18995 -1.08949,-0.23037 -1.64583,-0.13543 -0.61062,0.095 -1.24451,0.35749 -1.89583,0.79168 -0.65132,0.4071 -1.32565,0.96109 -2.03125,1.66666 -0.65133,0.65136 -1.27795,1.36926 -1.875,2.15625 -0.59705,0.75991 -1.1365,1.56498 -1.625,2.40625 -0.47492,0.82775 -0.91583,1.7459 -1.32292,2.75 -0.42064,0.99059 -0.80659,2.04044 -1.14583,3.16667 l -5.08334,-5.08334 c 0.33925,-0.80056 0.75111,-1.66059 1.23959,-2.58333 0.4885,-0.94982 1.01658,-1.82438 1.57291,-2.625 0.4478,-0.66486 1.03084,-1.44088 1.75,-2.32292 0.71919,-0.88196 1.52111,-1.77105 2.41667,-2.66666 0.94986,-0.94981 1.86074,-1.75489 2.72916,-2.40625 0.88202,-0.66486 1.72752,-1.19705 2.54167,-1.60417 0.82773,-0.4206 1.61828,-0.71939 2.36458,-0.89583 0.75989,-0.18993 1.48505,-0.28847 2.17709,-0.30208 z m -79.635417,9.88541 c 0.50885,-0.007 1.01877,0.0591 1.520833,0.20834 1.11268,0.3257 2.454057,1.10898 4.041667,2.34374 1.574033,1.22128 3.424846,2.89365 5.541666,5.01042 l 12.84375,12.84375 -4.885417,4.88542 -14.635416,-14.63542 c -0.895576,-0.89554 -1.642537,-1.58028 -2.239583,-2.04166 -0.58348,-0.4749 -1.086617,-0.78505 -1.520834,-0.94792 -0.841296,-0.32563 -1.602783,-0.1576 -2.281249,0.52083 -0.393507,0.39355 -0.622804,0.78676 -0.677084,1.16667 -0.05427,0.37997 -0.0034,0.76277 0.145833,1.15624 0.149264,0.42069 0.469841,0.94877 0.958334,1.57293 0.474926,0.61064 1.134716,1.34307 1.989583,2.19791 l 14.635417,14.63541 -4.822917,4.82292 -14.635417,-14.63541 c -1.641879,-1.64186 -2.899236,-2.63991 -3.781249,-2.97917 -0.841287,-0.32564 -1.61004,-0.13992 -2.302084,0.55208 -0.678453,0.6785 -0.864165,1.43272 -0.552083,2.26042 0.298535,0.81418 1.300695,2.08195 3.010417,3.79167 l 14.635416,14.625 -4.885416,4.88542 -22.791667,-22.79167 3.739583,-3.75001 2.958333,1.77084 c -0.556326,-1.26192 -0.72751,-2.51201 -0.510416,-3.76041 0.108569,-0.56988 0.298392,-1.13114 0.583333,-1.6875 0.28497,-0.58345 0.678186,-1.12606 1.166667,-1.61459 0.922725,-0.92267 2.023428,-1.48392 3.3125,-1.6875 1.31623,-0.2035 2.456406,0.0113 3.40625,0.63542 -0.502057,-1.3976 -0.644186,-2.68717 -0.427084,-3.85417 0.217117,-1.13978 0.847851,-2.23322 1.90625,-3.29167 0.990564,-0.99051 1.992724,-1.6462 3.010417,-1.95833 0.515634,-0.16281 1.032817,-0.24322 1.541667,-0.25 z m 86.354167,4.11459 -2.38542,2.38541 c -2.23894,2.23896 -3.50356,4.07209 -3.80208,5.51042 -0.3121,1.45193 0.20557,2.86183 1.5625,4.21875 0.55634,0.55635 1.11032,0.96095 1.66666,1.21874 0.54277,0.24426 1.13623,0.36461 1.76042,0.36459 1.22123,2e-5 2.36552,-0.53217 3.4375,-1.60416 0.75988,-0.75987 1.29933,-1.594 1.625,-2.48959 0.31208,-0.90912 0.38473,-1.88223 0.20834,-2.92708 -0.29854,-2.03538 -1.52273,-4.12686 -3.66667,-6.27084 L 128.75,948.88304 z m -29.489582,6.54166 c 0.508846,-0.007 1.018772,0.0695 1.520832,0.21875 1.11268,0.32571 2.46447,1.10899 4.05208,2.34375 1.57403,1.22128 3.41443,2.88323 5.53125,5 l 12.84375,12.84375 -4.88541,4.88542 -14.63542,-14.63542 c -0.89557,-0.89554 -1.64254,-1.56986 -2.23959,-2.03125 -0.58347,-0.47489 -1.08661,-0.79546 -1.52083,-0.95833 -0.841295,-0.32563 -1.602779,-0.14718 -2.281247,0.53125 -0.393509,0.39354 -0.612384,0.77634 -0.666669,1.15625 -0.05428,0.37997 -0.01381,0.77319 0.135415,1.16666 0.149269,0.42069 0.469843,0.93835 0.958336,1.56251 0.474929,0.61064 1.145133,1.34308 1.999995,2.19791 l 14.625,14.63542 -4.82291,4.82291 -14.635417,-14.63541 c -1.641883,-1.64186 -2.899235,-2.62949 -3.781249,-2.96875 -0.841288,-0.32564 -1.61004,-0.13993 -2.302086,0.55208 -0.678454,0.67849 -0.864166,1.43272 -0.552085,2.26041 0.298538,0.81419 1.311111,2.07155 3.020836,3.78126 l 14.635411,14.63541 -4.88541,4.88542 -22.802086,-22.80208 3.749999,-3.73959 2.947922,1.77084 c -0.556328,-1.26192 -0.727513,-2.52243 -0.510422,-3.77084 0.108576,-0.56988 0.308815,-1.13112 0.593755,-1.6875 0.284966,-0.58344 0.667766,-1.11564 1.156245,-1.60416 0.922728,-0.92268 2.033849,-1.48393 3.322916,-1.6875 1.31623,-0.20351 2.445993,6.7e-4 3.395837,0.625 -0.502058,-1.39761 -0.644187,-2.67676 -0.427083,-3.84375 0.217118,-1.13978 0.858267,-2.24364 1.916666,-3.30209 0.990563,-0.99051 1.992724,-1.63578 3.010416,-1.94791 0.515635,-0.16281 1.0224,-0.25363 1.531253,-0.26042 z m -24.572917,24.77083 5.208331,5.20834 c -0.909144,0.20357 -1.79823,0.46604 -2.666667,0.79166 -0.86843,0.29856 -1.658976,0.64093 -2.36458,1.02083 -0.705603,0.37998 -1.416245,0.83543 -2.13542,1.36459 -0.705597,0.51567 -1.387183,1.10597 -2.05208,1.77083 -0.610613,0.61066 -1.1169,1.20822 -1.510421,1.79167 -0.407067,0.56994 -0.684059,1.13119 -0.833334,1.6875 -0.16282,0.5428 -0.184615,1.04594 -0.0625,1.52084 0.122133,0.44781 0.34416,0.83376 0.656249,1.14583 0.610626,0.61064 1.477918,0.78909 2.604165,0.53125 1.126255,-0.25779 2.627442,-0.97885 4.5,-2.14584 l 0.281249,-0.15625 2.114581,-1.30208 c 1.329788,-0.81412 2.604826,-1.41896 3.8125,-1.8125 1.207661,-0.39348 2.359219,-0.5574 3.458338,-0.48958 1.099099,0.0679 2.173904,0.38119 3.218745,0.93749 1.031257,0.54281 2.011623,1.28251 2.947922,2.21876 2.347466,2.34751 3.3351,4.87265 2.968747,7.57293 -0.176418,1.3705 -0.701347,2.7773 -1.583335,4.2291 -0.854879,1.452 -2.028225,2.9241 -3.520832,4.4167 -0.692046,0.6921 -1.44627,1.3736 -2.260415,2.0521 -0.787031,0.6785 -1.584837,1.3124 -2.385418,1.8958 -0.800595,0.5835 -1.667894,1.152 -2.604166,1.7084 -0.922714,0.5427 -1.866766,1.0781 -2.843751,1.5937 l -5.21875,-5.2187 c 2.089675,-0.5699 4.002711,-1.3355 5.739584,-2.3125 0.882001,-0.5021 1.701602,-1.0229 2.44792,-1.5521 0.746303,-0.5563 1.464205,-1.183 2.156244,-1.875 1.343352,-1.3434 2.174328,-2.5789 2.500002,-3.7188 0.149248,-0.5563 0.171043,-1.0698 0.0625,-1.5312 -0.108569,-0.4885 -0.400082,-0.9626 -0.874997,-1.4375 -0.312109,-0.31208 -0.654471,-0.54865 -1.020837,-0.69793 -0.352809,-0.16281 -0.805094,-0.20639 -1.375,-0.125 -0.569913,0.0814 -1.261919,0.31073 -2.0625,0.67708 -0.787023,0.35285 -1.738335,0.88505 -2.864583,1.60415 l -2.020836,1.2813 c -2.795273,1.764 -5.262292,2.6272 -7.406246,2.5729 -2.157511,-0.068 -4.143191,-1.0078 -5.947917,-2.8125 -2.225351,-2.2254 -3.147607,-4.74323 -2.78125,-7.5521 0.366386,-2.80881 1.99517,-5.66179 4.885416,-8.55209 0.651337,-0.65128 1.340184,-1.28202 2.07292,-1.90624 0.732745,-0.62415 1.421592,-1.17402 2.072912,-1.63542 0.651332,-0.46132 1.405556,-0.9354 2.260415,-1.4375 0.841302,-0.51559 1.653642,-0.9565 2.427088,-1.32292 z"
       id="path3001"
       inkscape:connector-curvature="0" />
    <flowRoot
       xml:space="preserve"
       id="flowRoot3003"
       style="font-size:64px;font-style:normal;font-variant:normal;font-stretch:normal;text-align:end;line-height:125%;letter-spacing:0px;word-spacing:0px;text-anchor:end;fill:#ffffff;fill-opacity:1;stroke:none;font-family:Source Code Pro;-inkscape-font-specification:Source Code Pro Semi-Light"
       transform="translate(0,452.3622)"><flowRegion
         id="flowRegion3005"><rect
           id="rect3007"
           width="412.14224"
           height="264.65997"
           x="190.91884"
           y="120.17754"
           style="font-size:64px;font-style:normal;font-variant:normal;font-stretch:normal;text-align:end;text-anchor:end;fill:#ffffff;font-family:Source Code Pro;-inkscape-font-specification:Source Code Pro Semi-Light" /></flowRegion><flowPara
         id="flowPara3009"></flowPara></flowRoot>  </g>
</svg>
